<?xml version="1.0" encoding="UTF-8"?>
<svg xmlns="http://www.w3.org/2000/svg" xmlns:xlink="http://www.w3.org/1999/xlink" width="100pt" height="100pt" viewBox="0 0 100 100" version="1.1">
<g id="surface504">
<path style=" stroke:none;fill-rule:nonzero;fill:rgb(100%,93.333333%,63.921569%);fill-opacity:1;" d="M 21.519531 44.621094 L 19.851562 44.191406 L 14.074219 47.261719 L 13.84375 40.734375 L 12.914062 39.804688 L 11.945312 39.464844 L 6.074219 39.261719 L 9.148438 33.476562 L 8.792969 32.214844 L 8.136719 31.457031 L 3.144531 28.332031 L 8.703125 24.859375 L 9.035156 23.589844 L 8.832031 22.601562 L 6.074219 17.40625 L 12.625 17.175781 L 13.535156 16.226562 L 13.867188 15.277344 L 14.074219 9.40625 L 19.851562 12.476562 L 21.519531 12.046875 L 25 6.476562 L 28.480469 12.046875 L 30.148438 12.476562 L 35.925781 9.40625 L 36.15625 15.933594 L 37.085938 16.863281 L 38.054688 17.199219 L 43.925781 17.40625 L 40.851562 23.191406 L 41.207031 24.453125 L 41.863281 25.210938 L 46.855469 28.332031 L 41.296875 31.808594 L 40.964844 33.078125 L 41.167969 34.066406 L 43.925781 39.261719 L 37.375 39.488281 L 36.464844 40.441406 L 36.132812 41.390625 L 35.925781 47.261719 L 30.148438 44.191406 L 28.480469 44.621094 L 25 50.191406 Z M 21.519531 44.621094 "/>
<path style=" stroke:none;fill-rule:nonzero;fill:rgb(76.078431%,58.823529%,32.54902%);fill-opacity:1;" d="M 25 9.625 L 26.707031 12.355469 L 27.550781 13.53125 L 28.855469 13.855469 L 29.058594 13.910156 L 30.339844 14.265625 L 31.515625 13.640625 L 34.355469 12.128906 L 34.46875 15.335938 L 34.515625 16.671875 L 35.472656 17.605469 L 35.730469 17.863281 L 36.664062 18.820312 L 38 18.867188 L 41.207031 18.980469 L 39.695312 21.820312 L 39.070312 22.996094 L 39.425781 24.28125 L 39.515625 24.625 L 39.847656 25.921875 L 40.980469 26.625 L 43.714844 28.332031 L 40.980469 30.039062 L 39.808594 30.882812 L 39.480469 32.191406 L 39.429688 32.390625 L 39.074219 33.671875 L 39.699219 34.851562 L 41.210938 37.691406 L 38.003906 37.804688 L 36.667969 37.851562 L 35.734375 38.808594 L 35.476562 39.0625 L 34.519531 39.996094 L 34.472656 41.332031 L 34.359375 44.539062 L 31.519531 43.03125 L 30.335938 42.398438 L 29.050781 42.761719 L 28.707031 42.847656 L 27.414062 43.175781 L 26.707031 44.308594 L 25 47.042969 L 23.292969 44.308594 L 22.449219 43.136719 L 21.144531 42.808594 L 20.949219 42.761719 L 19.664062 42.398438 L 18.484375 43.027344 L 15.644531 44.535156 L 15.535156 41.328125 L 15.488281 39.992188 L 14.53125 39.058594 L 14.273438 38.804688 L 13.339844 37.847656 L 12.003906 37.800781 L 8.796875 37.6875 L 10.308594 34.847656 L 10.933594 33.671875 L 10.574219 32.390625 L 10.484375 32.039062 L 10.152344 30.75 L 9.019531 30.042969 L 6.289062 28.332031 L 9.023438 26.625 L 10.195312 25.785156 L 10.523438 24.476562 L 10.574219 24.277344 L 10.929688 22.992188 L 10.308594 21.816406 L 8.796875 18.976562 L 12.003906 18.867188 L 13.339844 18.820312 L 14.273438 17.863281 L 14.53125 17.605469 L 15.488281 16.671875 L 15.535156 15.335938 L 15.648438 12.128906 L 18.488281 13.640625 L 19.664062 14.265625 L 20.945312 13.910156 L 21.292969 13.820312 L 22.585938 13.488281 L 23.292969 12.355469 L 25 9.625 M 25 3.332031 L 20.464844 10.589844 C 20.328125 10.625 20.1875 10.65625 20.050781 10.695312 L 12.5 6.683594 L 12.199219 15.21875 C 12.09375 15.324219 11.988281 15.425781 11.886719 15.535156 L 3.351562 15.832031 L 7.363281 23.382812 C 7.324219 23.519531 7.289062 23.660156 7.257812 23.800781 L 0 28.332031 L 7.257812 32.867188 C 7.292969 33.007812 7.328125 33.148438 7.363281 33.285156 L 3.351562 40.832031 L 11.886719 41.132812 C 11.988281 41.238281 12.097656 41.34375 12.199219 41.445312 L 12.5 49.984375 L 20.050781 45.96875 C 20.1875 46.011719 20.328125 46.039062 20.464844 46.078125 L 25 53.332031 L 29.535156 46.078125 C 29.671875 46.039062 29.8125 46.007812 29.949219 45.96875 L 37.5 49.984375 L 37.800781 41.445312 C 37.90625 41.34375 38.011719 41.238281 38.113281 41.132812 L 46.648438 40.832031 L 42.636719 33.285156 C 42.675781 33.148438 42.707031 33.007812 42.742188 32.867188 L 50 28.332031 L 42.742188 23.800781 C 42.707031 23.660156 42.671875 23.519531 42.636719 23.382812 L 46.648438 15.832031 L 38.113281 15.535156 C 38.011719 15.425781 37.902344 15.324219 37.800781 15.21875 L 37.5 6.683594 L 29.949219 10.695312 C 29.8125 10.65625 29.671875 10.625 29.535156 10.589844 Z M 25 3.332031 "/>
<path style=" stroke:none;fill-rule:nonzero;fill:rgb(96.078431%,80.784314%,52.156863%);fill-opacity:1;" d="M 25 16.667969 C 18.558594 16.667969 13.332031 21.890625 13.332031 28.332031 C 13.332031 34.777344 18.558594 40 25 40 C 31.441406 40 36.667969 34.777344 36.667969 28.332031 C 36.667969 21.890625 31.441406 16.667969 25 16.667969 Z M 25 16.667969 "/>
<path style=" stroke:none;fill-rule:nonzero;fill:rgb(88.235294%,92.156863%,94.901961%);fill-opacity:1;" d="M 16.667969 88.3125 C 8.398438 88.3125 1.667969 81.582031 1.667969 73.3125 C 1.667969 67.3125 5.234375 61.902344 10.761719 59.53125 L 11.664062 59.140625 L 11.761719 58.160156 C 12.683594 48.746094 20.523438 41.648438 30 41.648438 L 30.554688 41.675781 L 31.90625 41.710938 L 32.214844 40.390625 C 34.351562 31.316406 42.351562 24.980469 51.667969 24.980469 C 58.507812 24.980469 64.796875 28.433594 68.507812 34.214844 L 68.996094 34.984375 C 68.996094 34.984375 69.914062 34.984375 69.917969 34.984375 C 79.941406 34.984375 87.976562 42.769531 88.300781 52.710938 L 88.328125 53.636719 L 89.132812 54.101562 C 94.808594 57.371094 98.332031 63.457031 98.332031 69.980469 C 98.332031 79.4375 90.953125 87.457031 81.53125 88.234375 L 80.574219 88.3125 Z M 16.667969 88.3125 "/>
<path style=" stroke:none;fill-rule:nonzero;fill:rgb(69.019608%,75.686275%,83.137255%);fill-opacity:1;" d="M 51.667969 26.648438 C 57.933594 26.648438 63.703125 29.8125 67.101562 35.117188 L 68.089844 36.664062 L 69.925781 36.648438 L 70.101562 36.648438 C 79.089844 36.699219 86.34375 43.761719 86.636719 52.765625 L 86.695312 54.621094 L 88.304688 55.546875 C 93.464844 58.523438 96.671875 64.054688 96.671875 69.980469 C 96.671875 78.578125 89.960938 85.867188 81.398438 86.574219 L 80.738281 86.648438 L 16.667969 86.648438 C 9.3125 86.648438 3.332031 80.667969 3.332031 73.3125 C 3.332031 67.980469 6.507812 63.171875 11.417969 61.0625 L 13.226562 60.285156 L 13.421875 58.328125 C 14.261719 49.773438 21.382812 43.320312 30.09375 43.324219 C 30.097656 43.324219 30.101562 43.324219 30.109375 43.324219 L 30.5 43.34375 L 33.21875 43.421875 L 33.84375 40.773438 C 35.796875 32.453125 43.125 26.648438 51.667969 26.648438 M 51.667969 23.3125 C 41.414062 23.3125 32.84375 30.441406 30.597656 40.011719 C 30.398438 40.003906 30.199219 39.980469 30 39.980469 C 19.625 39.980469 11.09375 47.882812 10.101562 58 C 4.164062 60.546875 0 66.441406 0 73.3125 C 0 82.515625 7.464844 89.980469 16.667969 89.980469 L 81.667969 89.980469 L 81.667969 89.898438 C 91.929688 89.046875 100 80.464844 100 69.980469 C 100 62.566406 95.957031 56.113281 89.964844 52.65625 C 89.617188 41.917969 80.824219 33.3125 70 33.3125 C 69.96875 33.3125 69.941406 33.316406 69.90625 33.316406 C 66.058594 27.308594 59.332031 23.3125 51.667969 23.3125 Z M 51.667969 23.3125 "/>
<path style=" stroke:none;fill-rule:nonzero;fill:rgb(100%,100%,100%);fill-opacity:1;" d="M 12.730469 64.125 L 14.539062 63.347656 L 16.351562 62.570312 L 16.542969 60.609375 L 16.738281 58.648438 C 17.40625 51.835938 23.105469 46.691406 30.027344 46.652344 L 30.398438 46.671875 L 33.121094 46.753906 L 35.839844 46.832031 L 36.464844 44.183594 L 37.085938 41.535156 C 38.558594 35.285156 43.75 30.808594 50.003906 30.121094 L 50.003906 26.785156 C 42.195312 27.492188 35.671875 33.007812 33.84375 40.773438 L 33.21875 43.421875 L 30.5 43.34375 L 30.109375 43.324219 C 30.105469 43.324219 30.101562 43.324219 30.09375 43.324219 C 21.378906 43.324219 14.261719 49.773438 13.421875 58.328125 L 13.226562 60.285156 L 11.417969 61.0625 C 6.507812 63.171875 3.332031 67.976562 3.332031 73.3125 L 6.667969 73.3125 C 6.667969 69.3125 9.046875 65.707031 12.730469 64.125 Z M 12.730469 64.125 "/>
</g>
</svg>
